Coordinates
version=1
nRows=18
nColumns=63
inDegrees=yes

Units are S.I. units (second, meters, Newtons, ...)
If the header above contains a line with 'inDegrees', this indicates whether rotational values are in degrees (yes) or radians (no).

endheader
time	pelvis_tilt	pelvis_list	pelvis_rotation	pelvis_tx	pelvis_ty	pelvis_tz	hip_flexion_r	hip_adduction_r	hip_rotation_r	knee_angle_r	knee_angle_r_beta	ankle_angle_r	subtalar_angle_r	mtp_angle_r	hip_flexion_l	hip_adduction_l	hip_rotation_l	knee_angle_l	knee_angle_l_beta	ankle_angle_l	subtalar_angle_l	mtp_angle_l	L5_S1_Flex_Ext	L5_S1_Lat_Bending	L5_S1_axial_rotation	L4_L5_Flex_Ext	L4_L5_Lat_Bending	L4_L5_axial_rotation	L3_L4_Flex_Ext	L3_L4_Lat_Bending	L3_L4_axial_rotation	L2_L3_Flex_Ext	L2_L3_Lat_Bending	L2_L3_axial_rotation	L1_L2_Flex_Ext	L1_L2_Lat_Bending	L1_L2_axial_rotation	L1_T12_Flex_Ext	L1_T12_Lat_Bending	L1_T12_axial_rotation	Abs_r3	Abs_r2	Abs_r1	Abs_t1	Abs_t2	neck_flexion	neck_bending	neck_rotation	arm_flex_r	arm_add_r	arm_rot_r	elbow_flex_r	pro_sup_r	wrist_flex_r	wrist_dev_r	arm_flex_l	arm_add_l	arm_rot_l	elbow_flex_l	pro_sup_l	wrist_flex_l	wrist_dev_l
4.169492	3.559975	1.748589	96.811372	0.268702	0.896744	0.671001	-9.895209	6.826854	0.388816	5.855880	0.102204	34.402320	3.743121	0.000000	-4.056003	-4.063131	10.357484	16.877603	0.294570	38.607456	-12.212680	0.000000	-0.304789	0.904283	-0.528752	-0.566025	1.202696	-0.561799	-0.500739	2.198674	-0.561799	-0.348344	2.198674	-0.462658	-0.283028	1.844014	-0.429611	-0.174157	1.400734	-0.396564	-2.177081	10.229430	-2.940760	0.000000	0.000000	23.842023	-1.377516	5.278580	-1.550302	-14.277636	47.106737	21.872841	64.629583	-7.607282	-0.914768	5.744709	-5.395727	134.577236	8.729943	8.856834	-4.299055	-0.081979
4.186441	3.525607	1.482737	96.556873	0.268604	0.896705	0.671539	-9.574357	6.682688	0.137139	5.913403	0.103208	34.379326	4.205397	0.000000	-3.822505	-3.971127	10.101225	16.791827	0.293073	38.541482	-12.058394	0.000000	-0.282053	0.897670	-0.540113	-0.523801	1.193902	-0.573870	-0.463386	2.182596	-0.573870	-0.322359	2.182596	-0.472599	-0.261915	1.830530	-0.438842	-0.161165	1.390492	-0.405085	-2.014680	10.154628	-3.003946	0.000000	0.000000	24.299211	-1.209304	5.583169	-1.188871	-14.378365	48.890467	21.606599	62.723429	-7.451057	-1.243471	5.654430	-5.414397	133.527214	8.819788	8.618643	-4.313510	-0.170105
4.203390	3.529322	1.187026	96.328068	0.268475	0.896626	0.672258	-9.165735	6.565418	-0.272469	6.049826	0.105589	34.396614	4.834646	0.000000	-3.508715	-3.922120	9.818318	16.763694	0.292582	38.478611	-11.867584	0.000000	-0.257995	0.895114	-0.550249	-0.479122	1.190502	-0.584640	-0.423860	2.176381	-0.584640	-0.294862	2.176381	-0.481468	-0.239574	1.825317	-0.447077	-0.147418	1.386532	-0.412687	-1.842831	10.125712	-3.060320	0.000000	0.000000	24.797097	-1.051730	5.872590	-0.886159	-14.482798	50.253902	21.416951	61.250214	-7.294663	-1.538069	5.586762	-5.398488	132.704672	8.864214	8.339367	-4.327126	-0.244944
4.220339	3.562349	0.879848	96.118436	0.268312	0.896515	0.673084	-8.707601	6.474871	-0.712402	6.239019	0.108891	34.433345	5.501868	0.000000	-3.146710	-3.899149	9.572238	16.786382	0.292978	38.399897	-11.727819	0.000000	-0.233414	0.895745	-0.551298	-0.433472	1.191341	-0.585754	-0.383475	2.177915	-0.585754	-0.266768	2.177915	-0.482386	-0.216748	1.826603	-0.447929	-0.133373	1.387509	-0.413473	-1.667250	10.132847	-3.066153	0.000000	0.000000	25.312148	-0.919299	6.090124	-0.674093	-14.588082	51.134875	21.315789	60.227517	-7.144935	-1.767052	5.549543	-5.358146	132.028764	8.891336	8.144168	-4.347287	-0.303252
4.237288	3.635429	0.550958	95.938361	0.268126	0.896335	0.674040	-8.172776	6.418977	-1.266002	6.506673	0.113563	34.523068	6.284386	0.000000	-2.706697	-3.913373	9.353226	16.890973	0.294803	38.341289	-11.602203	0.000000	-0.206285	0.900736	-0.545103	-0.383091	1.197979	-0.579172	-0.338905	2.190050	-0.579172	-0.235763	2.190050	-0.476965	-0.191556	1.836781	-0.442896	-0.117871	1.395240	-0.408827	-1.473471	10.189308	-3.031698	0.000000	0.000000	25.842695	-0.811159	6.258580	-0.557500	-14.690693	51.469877	21.312831	59.753170	-6.997934	-1.895751	5.527535	-5.281184	131.674360	8.855690	7.969067	-4.352615	-0.356960
4.254237	3.720157	0.258176	95.780652	0.267946	0.896166	0.674987	-7.674238	6.386381	-1.834127	6.769677	0.118153	34.623107	7.112441	0.000000	-2.298815	-3.947544	9.179149	17.005508	0.296802	38.272658	-11.522119	0.000000	-0.182731	0.906699	-0.526910	-0.339350	1.205910	-0.559842	-0.300209	2.204548	-0.559842	-0.208843	2.204548	-0.461046	-0.169684	1.848941	-0.428114	-0.104412	1.404477	-0.395182	-1.305228	10.256762	-2.930513	0.000000	0.000000	26.310125	-0.716962	6.322444	-0.551702	-14.771008	51.262231	21.396336	59.827953	-6.894612	-1.943680	5.525551	-5.184567	131.712688	8.767763	7.739802	-4.319451	-0.398693
4.271186	3.807793	-0.011366	95.600065	0.267855	0.895988	0.675943	-7.180202	6.354447	-2.454684	7.067742	0.123355	34.769753	8.074516	0.000000	-1.911179	-3.990313	8.982186	17.138823	0.299129	38.205852	-11.471490	0.000000	-0.162283	0.912375	-0.490798	-0.301376	1.213458	-0.521473	-0.266615	2.218347	-0.521473	-0.185473	2.218347	-0.429448	-0.150696	1.860514	-0.398773	-0.092728	1.413268	-0.368098	-1.159171	10.320963	-2.729671	0.000000	0.000000	26.721610	-0.633960	6.298894	-0.622059	-14.830414	50.662793	21.534093	60.290868	-6.844190	-1.930179	5.538964	-5.081292	132.007951	8.639511	7.477801	-4.250416	-0.423240
4.288136	3.897918	-0.250644	95.424137	0.267826	0.895801	0.676861	-6.721699	6.347800	-2.866251	7.355282	0.128374	34.893665	8.789940	0.000000	-1.556676	-4.039518	8.822759	17.276740	0.301536	38.126035	-11.501322	0.000000	-0.145285	0.917767	-0.444489	-0.269808	1.220630	-0.472270	-0.238688	2.231458	-0.472270	-0.166046	2.231458	-0.388928	-0.134911	1.871510	-0.361148	-0.083016	1.421621	-0.333367	-1.037755	10.381960	-2.472117	0.000000	0.000000	27.057853	-0.549861	6.219839	-0.775062	-14.863366	49.630218	21.732653	61.185335	-6.820921	-1.828738	5.558399	-4.985362	132.342073	8.503050	7.272255	-4.200587	-0.440177
4.305085	3.988461	-0.461316	95.252589	0.267879	0.895608	0.677714	-6.312166	6.365664	-3.025068	7.605512	0.132741	34.971798	9.205779	0.000000	-1.235517	-4.093605	8.696338	17.416951	0.303983	38.037044	-11.610302	0.000000	-0.131927	0.922450	-0.389941	-0.245002	1.226859	-0.414312	-0.216743	2.242846	-0.414312	-0.150779	2.242846	-0.341198	-0.122507	1.881061	-0.316827	-0.075383	1.428876	-0.292456	-0.942342	10.434944	-2.168735	0.000000	0.000000	27.306678	-0.440798	6.117953	-0.998480	-14.872072	48.261671	21.979924	62.378975	-6.832036	-1.658878	5.589090	-4.890145	132.985619	8.336867	6.913924	-4.153937	-0.462319
4.322034	4.074593	-0.637874	95.056950	0.268036	0.895419	0.678457	-5.973857	6.402739	-2.882766	7.795923	0.136065	34.999143	9.292615	0.000000	-0.969243	-4.148820	8.567970	17.538393	0.306103	37.943619	-11.782644	0.000000	-0.123555	0.926187	-0.322256	-0.229453	1.231829	-0.342397	-0.202988	2.251932	-0.342397	-0.141211	2.251932	-0.281974	-0.114733	1.888681	-0.261833	-0.070599	1.434664	-0.241692	-0.882538	10.477217	-1.792293	0.000000	0.000000	27.471985	-0.348989	5.967758	-1.330497	-14.836683	46.336701	22.300029	64.103600	-6.835265	-1.385975	5.631191	-4.809821	133.574357	8.173896	6.669556	-4.117580	-0.486495
4.338983	4.151259	-0.792459	94.847608	0.268283	0.895232	0.679088	-5.694527	6.441860	-2.647038	7.928798	0.138384	35.021809	9.308478	0.000000	-0.743295	-4.194204	8.468787	17.641563	0.307903	37.842313	-12.038093	0.000000	-0.118704	0.928391	-0.249188	-0.220445	1.234761	-0.264762	-0.195019	2.257291	-0.264762	-0.135667	2.257291	-0.218040	-0.110229	1.893176	-0.202465	-0.067828	1.438078	-0.186891	-0.847891	10.502149	-1.385909	0.000000	0.000000	27.555766	-0.247698	5.813848	-1.724857	-14.775767	44.135190	22.662107	66.069285	-6.854900	-1.043508	5.677682	-4.744221	134.214748	8.010808	6.357365	-4.117795	-0.506695
4.355932	4.212567	-0.922001	94.617247	0.268630	0.895055	0.679590	-5.500079	6.492061	-2.050897	7.962625	0.138974	34.979674	8.912254	0.000000	-0.565209	-4.222642	8.404136	17.725216	0.309363	37.734187	-12.370215	0.000000	-0.117863	0.928282	-0.175174	-0.218883	1.234615	-0.186123	-0.193637	2.257025	-0.186123	-0.134705	2.257025	-0.153277	-0.109447	1.892952	-0.142329	-0.067347	1.437909	-0.131381	-0.841882	10.500911	-0.974266	0.000000	0.000000	27.565244	-0.163607	5.644588	-2.121160	-14.704337	42.012516	23.019432	67.915735	-6.901833	-0.693090	5.726446	-4.701535	134.731729	7.855490	6.179944	-4.157556	-0.522572
4.372881	4.261623	-1.032996	94.355745	0.269066	0.894886	0.679993	-5.369094	6.542571	-1.300084	7.925123	0.138319	34.922865	8.373794	0.000000	-0.428918	-4.241284	8.323915	17.788287	0.310464	37.638992	-12.703693	0.000000	-0.120965	0.926932	-0.103566	-0.224645	1.232820	-0.110039	-0.198734	2.253743	-0.110039	-0.138251	2.253743	-0.090620	-0.112328	1.890200	-0.084148	-0.069120	1.435818	-0.077675	-0.864043	10.485644	-0.576004	0.000000	0.000000	27.520583	-0.122543	5.496455	-2.531362	-14.622896	39.787116	23.400509	69.921267	-6.941809	-0.277452	5.778813	-4.675618	135.132627	7.702619	6.150411	-4.214089	-0.520757
4.389831	4.295218	-1.136499	94.074475	0.269580	0.894720	0.680328	-5.281327	6.581391	-0.616020	7.832398	0.136701	34.893764	7.962776	0.000000	-0.316501	-4.250316	8.223208	17.837650	0.311326	37.555855	-13.008772	0.000000	-0.126640	0.924015	-0.042791	-0.235183	1.228940	-0.045466	-0.208056	2.246650	-0.045466	-0.144737	2.246650	-0.037443	-0.117598	1.884251	-0.034768	-0.072362	1.431299	-0.032094	-0.904575	10.452643	-0.237993	0.000000	0.000000	27.426227	-0.125016	5.398574	-2.875387	-14.544761	37.888234	23.748577	71.678740	-6.999119	0.120168	5.838311	-4.660571	135.639782	7.543282	6.131901	-4.297979	-0.502848
4.406780	4.315977	-1.237418	93.779933	0.270157	0.894553	0.680631	-5.225617	6.614994	0.063195	7.693890	0.134284	34.870265	7.572187	0.000000	-0.213406	-4.251839	8.102148	17.884905	0.312150	37.482625	-13.286064	0.000000	-0.134739	0.919941	0.001503	-0.250223	1.223522	0.001596	-0.221362	2.236745	0.001596	-0.153993	2.236745	0.001315	-0.125118	1.875944	0.001221	-0.076990	1.424989	0.001127	-0.962424	10.406559	0.008357	0.000000	0.000000	27.295404	-0.180048	5.370458	-3.135151	-14.471443	36.303211	24.059623	73.273637	-7.060602	0.508318	5.902404	-4.657815	136.177174	7.380842	6.224116	-4.422625	-0.466367
4.423729	4.324372	-1.339026	93.452731	0.270818	0.894380	0.680943	-5.185263	6.638788	0.715096	7.535534	0.131520	34.854653	7.237290	0.000000	-0.111318	-4.260109	7.839097	17.936739	0.313055	37.451892	-13.405125	0.000000	-0.145408	0.914654	0.033061	-0.270036	1.216490	0.035128	-0.238890	2.223890	0.035128	-0.166186	2.223890	0.028929	-0.135025	1.865163	0.026862	-0.083086	1.416799	0.024796	-1.038632	10.346752	0.183878	0.000000	0.000000	27.141068	-0.292270	5.400636	-3.299325	-14.408706	35.067028	24.335135	74.639028	-7.146085	0.866617	5.971278	-4.664460	136.795545	7.202759	6.516340	-4.635460	-0.404630
4.440678	4.325045	-1.452590	93.136266	0.271480	0.894182	0.681312	-5.130759	6.656423	1.280075	7.388285	0.128950	34.848005	6.962915	0.000000	0.016926	-4.253248	7.646583	18.010666	0.314345	37.397966	-13.623312	0.000000	-0.156568	0.908898	0.040839	-0.290762	1.208834	0.043392	-0.257225	2.209894	0.043392	-0.178941	2.209894	0.035734	-0.145389	1.853424	0.033182	-0.089463	1.407883	0.030630	-1.118347	10.281634	0.227136	0.000000	0.000000	26.968378	-0.414640	5.554829	-3.347860	-14.359077	34.210983	24.562302	75.849329	-7.223784	1.179229	6.035629	-4.688318	137.326341	7.038553	6.940999	-4.926451	-0.332438
4.457627	4.320145	-1.576123	92.813689	0.272172	0.893960	0.681750	-5.050107	6.657598	1.636026	7.284278	0.127135	34.872053	6.919217	0.000000	0.171500	-4.253830	7.365635	18.111620	0.316107	37.362784	-13.750772	0.000000	-0.167993	0.902477	0.034775	-0.311980	1.200294	0.036948	-0.275996	2.194282	0.036948	-0.191999	2.194282	0.030428	-0.155998	1.840331	0.028255	-0.095991	1.397937	0.026081	-1.199957	10.209000	0.193408	0.000000	0.000000	26.776860	-0.530182	5.802241	-3.295189	-14.326441	33.726357	24.746469	76.837027	-7.310888	1.421055	6.101960	-4.712236	138.157903	6.845399	7.197901	-5.257293	-0.263609
